<svg role="graphics-symbol" viewBox="0 0 16 16" class="archive" style="width: 23px; height: 23px; display: block; fill: rgba(55, 53, 47, 0.45); flex-shrink: 0; padding: 2px;"><path d="M4.083 14.585h7.499c1.347 0 2.064-.697 2.064-2.037V5.739c.664-.11 1.019-.608 1.019-1.34V3.36c0-.834-.458-1.36-1.299-1.36H2.3C1.499 2 1 2.526 1 3.36V4.4c0 .73.355 1.23 1.019 1.34v6.808c0 1.347.717 2.037 2.064 2.037zM2.579 4.728c-.342 0-.478-.144-.478-.486v-.724c0-.342.136-.486.478-.486h10.514c.342 0 .472.144.472.486v.724c0 .342-.13.486-.472.486H2.579zm1.49 8.825c-.615 0-.95-.335-.95-.95V5.76h9.427v6.842c0 .616-.342.95-.95.95H4.069zM5.58 8.515h4.512c.287 0 .492-.199.492-.5v-.218c0-.3-.205-.492-.492-.492H5.58c-.287 0-.485.191-.485.492v.219c0 .3.198.499.485.499z"></path></svg>