<svg role="graphics-symbol" width='20' viewBox="0 0 20 20" class="sidebarInviteTeam" style="height: 20px; display: block; fill: rgba(55, 53, 47, 0.45); flex-shrink: 0;"><g clip-path="url(#a)"><g clip-path="url(#b)"><path d="M15.898 14.531H14.57v1.18c0 1.664-.867 2.531-2.562 2.531H4.102c-1.688 0-2.563-.867-2.563-2.531V7.742c0-1.664.875-2.531 2.563-2.531H5.43V4.03c0-1.664.875-2.531 2.562-2.531h7.906c1.688 0 2.563.86 2.563 2.531v7.961c0 1.672-.875 2.54-2.563 2.54ZM15.805 13c.726 0 1.125-.375 1.125-1.133V4.164c0-.758-.399-1.14-1.125-1.14H8.078c-.719 0-1.125.382-1.125 1.14v1.047h5.055c1.695 0 2.562.867 2.562 2.531V13h1.235Zm-3.883 3.71c.726 0 1.117-.374 1.117-1.132V7.875c0-.758-.39-1.133-1.117-1.133H4.195c-.718 0-1.125.375-1.125 1.133v7.703c0 .758.407 1.133 1.125 1.133h7.727Z"></path><path d="M8 11.426c.855 0 1.574-.758 1.574-1.739C9.574 8.73 8.848 8 8 8c-.848 0-1.578.742-1.574 1.695 0 .973.722 1.73 1.574 1.73Zm-2.602 3.633h5.2c.437 0 .703-.207.703-.551 0-1.008-1.278-2.39-3.301-2.39-2.027 0-3.3 1.382-3.3 2.39 0 .344.26.55.698.55Z"></path></g></g><defs><clipPath id="a"><path d="M0 0h20v20H0z"></path></clipPath><clipPath id="b"><path transform="translate(-2.5 .5)" d="M0 0h28v21H0z"></path></clipPath></defs></svg>