<svg role="graphics-symbol" viewBox="0 0 16 16" class="filterCircled" style="width: 17px; height: 17px; display: block; fill: rgb(172, 171, 169); flex-shrink: 0; cursor: pointer;"><path d="M8 15.126C11.8623 15.126 15.0615 11.9336 15.0615 8.06445C15.0615 4.20215 11.8623 1.00293 7.99316 1.00293C4.13086 1.00293 0.938477 4.20215 0.938477 8.06445C0.938477 11.9336 4.1377 15.126 8 15.126ZM8 13.7383C4.85547 13.7383 2.33301 11.209 2.33301 8.06445C2.33301 4.91992 4.84863 2.39746 7.99316 2.39746C11.1377 2.39746 13.667 4.91992 13.6738 8.06445C13.6738 11.209 11.1445 13.7383 8 13.7383ZM4.41797 6.75879H11.5889C11.9307 6.75879 12.1699 6.54688 12.1699 6.22559C12.1699 5.9043 11.9307 5.68555 11.5889 5.68555H4.41797C4.07617 5.68555 3.84375 5.9043 3.84375 6.22559C3.84375 6.54688 4.07617 6.75879 4.41797 6.75879ZM5.36816 9.02148H10.6455C10.9805 9.02148 11.2197 8.80273 11.2197 8.48145C11.2197 8.16016 10.9805 7.94141 10.6455 7.94141H5.36816C5.02637 7.94141 4.78711 8.16016 4.78711 8.48145C4.78711 8.80273 5.02637 9.02148 5.36816 9.02148ZM6.35254 11.2773H9.6543C9.99609 11.2773 10.2354 11.0654 10.2354 10.7441C10.2354 10.4229 9.99609 10.2041 9.6543 10.2041H6.35254C6.01074 10.2041 5.77148 10.4229 5.77148 10.7441C5.77148 11.0654 6.01074 11.2773 6.35254 11.2773Z"></path></svg>