<svg role="graphics-symbol" viewBox="0 0 18 18" class="notificationRead" style="width: 19px; height: 20px; display: block; fill: rgba(55, 53, 47, 0.45); flex-shrink: 0; padding: 2px;"><path d="M3.066 17.998h11.846c2.05 0 3.066-1.016 3.066-3.027V3.047c0-2.012-1.015-3.027-3.066-3.027H3.066C1.026.02 0 1.025 0 3.047V14.97c0 2.021 1.025 3.027 3.066 3.027Zm.02-1.572c-.977 0-1.514-.518-1.514-1.533V3.125c0-1.016.537-1.533 1.514-1.533h11.807c.966 0 1.513.517 1.513 1.533v11.768c0 1.015-.547 1.533-1.513 1.533Zm4.844-2.793c.322 0 .595-.156.79-.46l4.464-7.02c.117-.196.234-.41.234-.626 0-.44-.39-.722-.791-.722-.254 0-.498.156-.684.44l-4.052 6.503-1.924-2.49c-.235-.313-.45-.39-.713-.39a.759.759 0 0 0-.762.77c0 .216.088.42.225.606l2.383 2.93c.244.322.507.459.83.459Z"></path></svg>