<svg role="graphics-symbol" viewBox="0 0 41 42" class="notionLogoStroked" style="width: 64px; height: 64px; display: block; fill: inherit; flex-shrink: 0; flex-grow: 0; margin-top: 4px;"><path d="M4.253 2.903h0-.01c-1.02.09-1.806.481-2.322 1.142-.5.642-.671 1.441-.671 2.21v23.228c0 1.267.47 2.316 1.416 3.577h0l.006.008 4.99 6.477h0l.005.005c.465.593.963 1.017 1.617 1.256.63.23 1.33.26 2.138.221h.01l24.652-1.49h.008c1.137-.08 2.038-.396 2.632-1.071.588-.668.746-1.543.746-2.431V9.904c0-.584-.133-1.05-.508-1.486-.27-.311-.669-.602-1.113-.925a54.305 54.305 0 01-.176-.13l-.007-.004-.005-.004-6.772-4.761c-.838-.609-1.516-1.017-2.365-1.21-.824-.187-1.75-.156-3.047-.044L4.253 2.903z" fill="#fff" stroke="#fff" stroke-width="1.5"></path><path fill-rule="evenodd" clip-rule="evenodd" d="M25.257 3.158L5.176 4.637c-1.62.14-2.184 1.197-2.184 2.464v21.971c0 .987.352 1.83 1.198 2.959l4.72 6.126c.776.987 1.48 1.198 2.96 1.127l23.32-1.408c1.973-.14 2.537-1.057 2.537-2.606V10.552c0-.801-.316-1.032-1.25-1.714l-.16-.117-6.41-4.507c-1.55-1.126-2.184-1.268-4.65-1.056zM12.4 10.146c-1.904.129-2.337.158-3.418-.72l-2.75-2.183c-.28-.283-.14-.635.565-.705L26.102 5.13c1.62-.141 2.466.423 3.1.916l3.311 2.394c.141.07.493.492.07.492L12.645 10.13l-.245.016zM10.179 35.06V14.074c0-.916.281-1.338 1.126-1.41l22.898-1.337c.777-.07 1.128.423 1.128 1.338v20.844c0 .916-.14 1.691-1.41 1.761l-21.91 1.268c-1.269.07-1.832-.352-1.832-1.48zm21.63-19.86c.141.635 0 1.268-.635 1.34l-1.056.21v15.492c-.916.493-1.761.775-2.466.775-1.128 0-1.41-.352-2.255-1.408l-6.905-10.845v10.493l2.185.493s0 1.267-1.763 1.267l-4.86.282c-.142-.282 0-.986.492-1.127l1.269-.351V17.947l-1.761-.142c-.141-.634.21-1.549 1.197-1.62l5.214-.351 7.187 10.986V17.1l-1.832-.21c-.14-.776.422-1.339 1.127-1.409l4.863-.283z" fill="#222"></path></svg>