<svg role="graphics-symbol" viewBox="3 1 17 17" class="settingsNotifications" style="width: 20px; height: 20px; display: block; fill: inherit; flex-shrink: 0;"><path d="M5.36914 13.7627C5.36914 13.0381 6.03906 12.416 6.6543 11.8145C7.13965 11.3428 7.24902 10.3994 7.33789 9.46289C7.42676 6.87207 8.17871 5.14258 9.96289 4.49316C10.2227 3.59082 10.9814 2.90039 12 2.90039C13.0186 2.90039 13.7773 3.59082 14.0371 4.49316C15.8213 5.14258 16.5732 6.87207 16.6621 9.46289C16.751 10.3994 16.8672 11.3428 17.3457 11.8145C17.9678 12.416 18.6309 13.0381 18.6309 13.7627C18.6309 14.3369 18.2002 14.7266 17.4893 14.7266H14.6797C14.6182 16.0391 13.5518 17.2285 12 17.2285C10.4482 17.2285 9.38184 16.0322 9.32031 14.7266H6.51074C5.80664 14.7266 5.36914 14.3369 5.36914 13.7627ZM7.00293 13.4756H16.9834V13.3936C16.8125 13.1953 16.4297 12.833 16.0879 12.4434C15.623 11.9033 15.3975 10.9258 15.3291 9.62695C15.2539 6.85156 14.3994 5.92871 13.2988 5.62793C13.1279 5.58691 13.0322 5.50488 13.0186 5.32031C12.9912 4.62305 12.6016 4.1582 12 4.1582C11.3984 4.1582 11.0156 4.62305 10.9814 5.32031C10.9678 5.50488 10.8721 5.58691 10.708 5.62793C9.60059 5.92871 8.75293 6.85156 8.6709 9.62695C8.60254 10.9258 8.38379 11.9033 7.91211 12.4434C7.57715 12.833 7.18066 13.1953 7.00293 13.3936V13.4756ZM10.6123 14.7266C10.667 15.5811 11.2275 16.1348 12 16.1348C12.7793 16.1348 13.3398 15.5811 13.3877 14.7266H10.6123Z"></path></svg>