<svg role="graphics-symbol" viewBox="0 0 16 16" class="bell" style="width: 16px; height: 16px; display: block; fill: rgba(55, 53, 47, 0.85); flex-shrink: 0;"><path d="M1.36914 11.7627C1.36914 12.3369 1.80664 12.7266 2.51074 12.7266H5.32031C5.38184 14.0322 6.44824 15.2285 8 15.2285C9.55176 15.2285 10.6182 14.0391 10.6797 12.7266H13.4893C14.2002 12.7266 14.6309 12.3369 14.6309 11.7627C14.6309 11.0381 13.9678 10.416 13.3457 9.81445C12.8672 9.34277 12.751 8.39941 12.6621 7.46289C12.5732 4.87207 11.8213 3.14258 10.0371 2.49316C9.77734 1.59082 9.01855 0.900391 8 0.900391C6.98145 0.900391 6.22266 1.59082 5.96289 2.49316C4.17871 3.14258 3.42676 4.87207 3.33789 7.46289C3.24902 8.39941 3.13965 9.34277 2.6543 9.81445C2.03906 10.416 1.36914 11.0381 1.36914 11.7627ZM3.00293 11.4756V11.3936C3.18066 11.1953 3.57715 10.833 3.91211 10.4434C4.38379 9.90332 4.60254 8.92578 4.6709 7.62695C4.75293 4.85156 5.60059 3.92871 6.70801 3.62793C6.87207 3.58691 6.96777 3.50488 6.98145 3.32031C7.01562 2.62305 7.39844 2.1582 8 2.1582C8.60156 2.1582 8.99121 2.62305 9.01855 3.32031C9.03223 3.50488 9.12793 3.58691 9.29883 3.62793C10.3994 3.92871 11.2539 4.85156 11.3291 7.62695C11.3975 8.92578 11.623 9.90332 12.0879 10.4434C12.4297 10.833 12.8125 11.1953 12.9834 11.3936V11.4756H3.00293ZM6.6123 12.7266H9.3877C9.33984 13.5811 8.7793 14.1348 8 14.1348C7.22754 14.1348 6.66699 13.5811 6.6123 12.7266Z"></path></svg>